<svg width="70" height="71" viewBox="0 0 70 71" fill="none" xmlns="http://www.w3.org/2000/svg">
<g clip-path="url(#clip0_38_1167)">
<g clip-path="url(#clip1_38_1167)">
<path fill-rule="evenodd" clip-rule="evenodd" d="M2.24454 0.949951H2.30913H13.7094C14.436 0.949951 15.0173 1.55595 15.0173 2.27659V2.34211C15.0173 3.07913 14.436 3.66875 13.7094 3.66875H3.61709V13.9052C3.61709 14.6422 3.03578 15.2318 2.30913 15.2318H2.24454C1.53405 15.2318 0.936584 14.6422 0.936584 13.9052V2.34211V2.27659C0.936584 1.55595 1.53405 0.949951 2.24454 0.949951ZM67.7555 0.949951H67.6909H56.2907C55.564 0.949951 54.9827 1.55595 54.9827 2.27659V2.34211C54.9827 3.07913 55.564 3.66875 56.2907 3.66875H66.3829V13.9052C66.3829 14.6422 66.9643 15.2318 67.6909 15.2318H67.7555C68.466 15.2318 69.0635 14.6422 69.0635 13.9052V2.34211V2.27659C69.0635 1.55595 68.466 0.949951 67.7555 0.949951ZM67.7555 70.0501H67.6909H56.2907C55.564 70.0501 54.9827 69.4441 54.9827 68.7234V68.6579C54.9827 67.9209 55.564 67.3313 56.2907 67.3313H66.3829V57.0948C66.3829 56.3578 66.9643 55.7682 67.6909 55.7682H67.7555C68.466 55.7682 69.0635 56.3578 69.0635 57.0948V68.6579V68.7234C69.0635 69.4441 68.466 70.0501 67.7555 70.0501ZM2.24454 70.0501H2.30913H13.7094C14.436 70.0501 15.0173 69.4441 15.0173 68.7234V68.6579C15.0173 67.9209 14.436 67.3313 13.7094 67.3313H3.61709V57.0948C3.61709 56.3578 3.03578 55.7682 2.30913 55.7682H2.24454C1.53405 55.7682 0.936584 56.3578 0.936584 57.0948V68.6579V68.7234C0.936584 69.4441 1.53405 70.0501 2.24454 70.0501Z" fill="white"/>
</g>
<path fill-rule="evenodd" clip-rule="evenodd" d="M28.3028 40.262C28.6419 40.737 29.0052 41.2038 29.4331 41.605L29.8529 41.9572C29.9175 42.0063 30.0467 42.1537 30.184 42.3175C30.1678 42.1046 30.1678 41.8916 30.1678 41.6787C30.1678 41.4331 30.1759 41.1874 30.192 40.9499C30.1759 40.9335 30.1597 40.9253 30.1517 40.9171C30.0386 40.8434 30.0306 40.8598 29.9014 40.737L29.199 39.8935C29.0375 39.6642 28.876 39.4349 28.7549 39.1892C28.545 38.7634 28.4642 38.6979 28.2705 38.182C28.1978 37.9608 28.0848 37.7561 28.0444 37.5186L27.8991 36.8717C27.8345 36.4459 27.786 36.0446 27.778 35.6188C27.7537 34.6361 27.8506 34.8899 27.8829 34.3822C27.891 34.1775 27.9798 33.9973 28.0121 33.8008C28.0363 33.6861 28.0363 33.6124 28.0686 33.5059C28.1009 33.4077 28.1251 33.3012 28.1494 33.1948C28.2947 32.6051 28.5773 32.2366 28.658 32.0237C28.7307 31.8272 28.876 31.6798 29.0375 31.4832C29.1909 31.3031 29.1344 31.2867 29.3362 31.0656C29.3927 31.0164 29.4008 30.9919 29.4412 30.9264C29.5865 30.6725 29.6672 30.5906 29.8852 30.3777C30.3616 29.9109 30.4585 29.829 30.9913 29.4441C31.2174 29.2722 31.4354 29.1493 31.6695 29.0265L32.3397 28.7071C32.4931 28.6498 32.5334 28.6907 32.6465 28.6334C32.7999 28.5597 32.8564 28.5269 32.9856 28.4942C33.5023 28.3222 34.0352 28.2976 34.56 28.2158C35.0848 28.142 34.6972 28.2158 35.1817 28.1994C35.3028 28.1994 35.3916 28.183 35.5046 28.1748H35.6257H35.6419L35.9729 28.2158C36.0536 28.2239 36.0375 28.2158 36.1263 28.2076C36.3281 28.1994 37.1113 28.4614 37.3051 28.5269C37.4181 28.5515 37.4827 28.5761 37.5877 28.6252C37.7007 28.6743 37.7895 28.6989 37.8864 28.7562C38.0882 28.8463 38.2739 28.9036 38.4677 29.0183C38.5161 29.051 38.5404 29.0756 38.5888 29.1166C38.718 29.2148 38.613 29.1575 38.7422 29.1903C38.8391 29.223 38.936 29.2967 39.0329 29.3786C39.1297 29.4605 39.1782 29.5342 39.2912 29.6161C39.8968 30.0583 40.2359 30.3613 40.5346 30.6725C40.7041 30.6643 40.8656 30.6561 41.0352 30.6561C41.342 30.6561 41.6488 30.6725 41.9556 30.6971C41.4873 30.1975 41.0352 29.7144 40.5104 29.264C40.2439 29.0429 40.0259 28.8381 39.7514 28.6252C39.5577 28.486 39.4608 28.5433 39.3477 28.445L39.1459 28.3222C39.1378 28.3222 39.1297 28.314 39.1297 28.314C39.0167 28.2485 39.0732 28.2403 38.9441 28.2403C38.7906 28.2321 38.7826 28.142 38.5565 28.0438L37.7411 27.6753L36.0859 27.3068C35.8114 27.2576 35.5369 27.1839 35.2462 27.2249C35.0605 27.2494 34.996 27.1921 34.8103 27.2003C34.673 27.2085 34.5035 27.2249 34.3662 27.2412C34.2612 27.2576 34.011 27.3068 33.9141 27.2986C33.6557 27.274 33.7284 27.3149 33.4862 27.3805C32.9533 27.5279 32.7111 27.5115 32.1055 27.7572C31.1367 28.1584 29.8691 28.92 29.1586 29.7553C29.0213 29.9191 29.1424 29.8863 28.8841 30.0747C28.6176 30.2712 28.5127 30.4841 28.3754 30.7216C28.2947 30.8363 28.2059 30.9264 28.1413 31.0492L27.4066 32.4004C27.124 33.1702 27.1321 33.334 26.9625 33.9891C26.9464 34.0874 26.9302 34.0792 26.9302 34.1856C26.9221 34.3331 26.8979 34.3986 26.8898 34.5378C26.8495 34.9227 26.7526 35.0373 26.7768 35.4386C26.7849 35.6351 26.7607 35.7825 26.793 35.9873L26.9787 37.1256C27.0755 37.6579 27.1805 38.1574 27.3904 38.6651C27.5923 39.1483 27.9394 39.8034 28.2866 40.2866L28.3028 40.262ZM35.7387 40.4995L36.1101 40.1228C36.4492 39.7788 37.0063 39.7788 37.3374 40.1228L40.4135 43.2429L44.959 38.6324C45.2981 38.2884 45.8552 38.2884 46.1863 38.6324L46.5657 39.0091C46.8968 39.353 46.8968 39.9099 46.5657 40.2538L41.3985 45.4867L41.0271 45.8716L41.0109 45.8798L40.9948 45.8961L40.9787 45.9125L40.9625 45.9289L40.9464 45.9453L40.9302 45.9535L40.9141 45.9698L40.8898 45.978L40.8737 45.9944L40.8575 46.0026C40.6153 46.15 40.3247 46.1664 40.0663 46.0517C40.0582 46.0435 40.0421 46.0435 40.034 46.0354L40.0098 46.0272L39.9936 46.0108L39.9775 46.0026L39.9533 45.9944L39.9371 45.978L39.921 45.9698L39.9048 45.9535L39.8806 45.9453L39.8645 45.9289L39.8483 45.9125L39.8322 45.8961L39.816 45.8798L39.7999 45.8716L39.4285 45.4867L35.7387 41.7442C35.3996 41.4085 35.3996 40.8434 35.7387 40.4995ZM41.0352 31.7125C46.4608 31.7125 50.861 36.1756 50.861 41.6787C50.861 47.19 46.4608 51.6531 41.0352 51.6531C35.6015 51.6531 31.2013 47.19 31.2013 41.6787C31.2013 36.1756 35.6015 31.7125 41.0352 31.7125ZM41.0352 33.1538C45.6776 33.1538 49.44 36.97 49.44 41.6787C49.44 46.3957 45.6776 50.2118 41.0352 50.2118C36.3847 50.2118 32.6223 46.3957 32.6223 41.6787C32.6223 36.97 36.3847 33.1538 41.0352 33.1538ZM25.5334 43.0627C25.8564 43.5131 26.1228 43.7096 26.2278 43.8489C26.4781 44.1928 26.9383 44.5859 27.2693 44.9216C27.4954 45.1346 27.778 45.544 27.9233 45.8061C28.004 45.9371 28.1009 46.1173 28.1251 46.2565C28.1574 46.4448 28.1978 46.5021 28.2705 46.6905C28.4481 47.1245 28.545 47.5504 28.5611 48.0089C28.5773 48.4594 28.6257 48.14 28.5773 48.8361L28.4885 49.4502C28.4562 49.9498 28.2866 50.22 28.7226 50.4002C29.0617 50.5558 29.3201 50.3265 29.3524 50.1791L29.4169 49.8679C29.4331 49.7942 29.4331 49.745 29.4492 49.6713C29.4735 49.4502 29.5623 49.0326 29.5461 48.8361C29.5381 48.7705 29.5138 48.6968 29.5219 48.6313C29.5461 48.5085 29.5703 48.5822 29.5623 48.4184C29.5381 48.1072 29.5461 47.8779 29.4896 47.5749C29.4735 47.4767 29.4735 47.4685 29.4654 47.3702C29.4492 47.1081 29.3281 46.8461 29.2635 46.494C29.2312 46.3056 29.1344 46.2892 29.094 46.0599C29.0617 45.8716 28.9648 45.8798 28.8437 45.5931C28.7549 45.372 28.9002 45.4867 28.4804 44.8971C27.8829 44.0536 27.8264 44.1027 27.0594 43.3821C26.9948 43.3329 26.9625 43.292 26.906 43.251C26.5265 42.9808 26.688 43.0217 26.3973 42.6696C25.7837 41.9326 25.2589 42.7106 25.5334 43.0873V43.0627ZM25.3235 47.9189C25.9614 47.4521 25.0975 46.9607 24.7584 46.6086L23.8379 45.6013C23.5473 45.2328 22.8449 44.373 22.6592 44.0126C22.6188 43.9471 22.1667 43.292 21.981 42.9399L21.4562 41.8589C20.9879 40.8189 21.0848 41.0564 20.7295 40.0081C20.7134 39.9262 20.673 39.8607 20.6407 39.7952C20.6003 39.6806 20.6246 39.6806 20.6003 39.5823L20.35 38.5587C20.3258 38.4276 20.2693 38.2884 20.2532 38.1574C20.2289 37.9199 20.3178 37.9445 20.124 37.6742C19.8414 37.2811 19.1793 37.4204 19.2924 38.2229C19.3489 38.6406 19.5346 39.2793 19.5588 39.4185C19.5669 39.484 19.575 39.5414 19.583 39.5987C19.6315 39.8935 20.124 41.3839 20.2855 41.7361C20.3904 41.9735 20.5035 42.2028 20.6084 42.4485C20.7134 42.7024 20.8829 42.9644 21.004 43.2019C21.1736 43.5622 21.4077 43.9144 21.6176 44.2911C21.8114 44.6514 22.6592 45.7569 22.9498 46.1173L24.2336 47.4767C24.3708 47.5831 24.2659 47.4193 24.5161 47.6732C24.6292 47.7796 24.8472 47.9516 24.9925 47.9762C25.0652 47.9844 25.267 47.968 25.3397 47.9189H25.3235ZM26.1955 31.0164C26.3489 31.2376 26.6718 31.3276 26.8898 31.1638C27.1886 30.9509 27.4389 30.2958 27.6891 30.0256C27.9394 29.7471 27.8264 29.8454 27.9798 29.6489C28.5369 28.9118 29.1424 28.4614 29.9337 27.8882L30.7733 27.3477C30.959 27.2986 30.9833 27.2822 31.1851 27.143C31.4031 26.9874 31.7341 26.8973 31.9925 26.7908C32.154 26.7253 32.2428 26.6189 32.4043 26.5861C32.485 26.5697 32.5415 26.5697 32.6061 26.5452C32.8483 26.4797 32.8806 26.4059 33.2036 26.3978C33.365 26.3896 33.4458 26.3322 33.5992 26.3241C33.7364 26.3077 33.8495 26.3159 33.9787 26.3077C34.2451 26.2913 34.8103 26.2012 35.1251 26.2094C35.3431 26.2176 35.7065 26.2913 35.9164 26.1357C36.0859 26.0129 36.3604 25.3987 35.6903 25.2677H34.4954C34.3581 25.284 34.2451 25.2595 34.0998 25.284C33.9464 25.3086 33.8414 25.3577 33.688 25.3495C33.3731 25.3495 33.3247 25.4888 33.0825 25.3987L32.9856 25.3823C32.7757 25.3987 31.5 25.8 31.169 25.9555C30.2001 26.3732 29.6834 26.7171 28.8356 27.3313C28.2059 27.8063 27.7295 28.3058 27.2451 28.8709C27.1724 28.9528 27.0998 29.0183 27.0352 29.1084L26.4216 30.0419C26.2359 30.3367 25.9371 30.6807 26.1874 31.0328L26.1955 31.0164ZM31.6938 36.0446L31.6453 35.6925C31.6372 35.5696 31.6372 35.4959 31.6372 35.3895C31.6453 34.8653 31.7987 34.4149 32.0248 33.9564C32.154 33.7107 32.6061 33.0883 32.8806 32.8918C33.0986 32.728 33.2278 32.6625 33.4458 32.5151C33.7284 32.3103 33.8091 32.3513 33.9948 32.2858C34.5277 32.0647 34.4873 32.0892 35.0605 32.0647C35.2301 32.0565 35.4239 32.081 35.6257 32.1138C36.0294 31.8845 36.4492 31.6716 36.8772 31.4914C36.748 31.4341 36.6269 31.3768 36.5219 31.3522C36.2878 31.2785 36.3847 31.2539 36.0133 31.1475C35.8841 31.1065 35.3754 31.0492 35.2139 31.0574C35.0605 31.0574 35.0525 31.1147 34.9233 31.1311L34.3823 31.172C33.6961 31.2867 33.1874 31.475 32.5657 31.9418C32.154 32.2448 31.5242 32.8181 31.3627 33.162L31.2174 33.4814C30.8299 34.202 30.6522 35.0619 30.7249 35.8808C30.7653 36.2821 30.8783 36.8717 31.0802 37.2484C31.2578 36.8307 31.4677 36.4295 31.6938 36.0446ZM34.4227 19.9938C34.7295 20.4197 34.5438 20.2068 34.7699 20.2559C34.9556 20.2968 34.7214 20.305 35.0605 20.2886C35.222 20.2805 35.1413 20.3296 35.3593 20.305C35.44 20.2968 35.4804 20.2968 35.5611 20.305C35.7953 20.3296 35.9164 20.3378 36.1586 20.3214C36.4169 20.2968 36.6753 20.4033 36.9337 20.4197C37.3374 20.4524 37.733 20.5179 38.1205 20.6162C38.2013 20.6408 38.2174 20.649 38.3062 20.6572C38.6211 20.7063 38.8714 20.7964 39.162 20.9192C39.3154 20.9765 39.1701 20.9192 39.3235 20.9356L39.6707 21.0257C40.0905 21.1239 40.3893 21.2632 40.8172 21.4679L41.1886 21.6317C41.3258 21.6972 41.3985 21.7873 41.5519 21.8528C42.5208 22.2377 41.8264 21.9838 42.6419 22.4915C42.7791 22.5652 42.8679 22.6226 43.0052 22.7126C43.2555 22.8682 43.5058 23.0238 43.748 23.1958C43.861 23.2859 43.9821 23.376 44.0951 23.4742L44.4504 23.7281C44.7007 23.8755 44.9268 24.2686 45.1609 24.416C45.2739 24.4815 45.2336 24.4324 45.3304 24.5634C45.395 24.6453 45.4273 24.678 45.5081 24.7517C45.613 24.85 45.7503 24.9319 45.8552 25.0629C45.9925 25.2267 46.0329 25.325 46.1943 25.456C46.485 25.7099 46.8968 26.2667 47.0744 26.6107C47.2843 27.0119 47.4458 27.0611 47.7445 27.1102C47.9544 27.1512 48.124 27.1184 48.2855 26.8891C48.35 26.799 48.3985 26.496 48.2612 26.3241L47.4296 25.153C47.3085 24.9892 47.2116 24.891 47.1148 24.7599C46.8241 24.3914 46.8725 24.6289 46.4688 24.0557C46.3881 23.941 46.3881 23.9246 46.2912 23.8673C46.0167 23.7199 46.1378 23.7609 46.0006 23.5479C45.936 23.4333 45.9198 23.4824 45.8229 23.4579C45.6534 23.4169 45.6292 23.2449 45.4919 23.163C45.3708 23.0812 45.4596 23.1794 45.3304 23.0484C45.2416 22.9337 44.9268 22.6881 44.8137 22.6553C44.6845 22.6144 44.7814 22.6963 44.6442 22.6062C44.41 22.4506 44.4665 22.467 44.1194 22.254C43.9983 22.1803 43.9014 22.1312 43.7722 22.0493L42.0121 20.9847C41.8991 20.9192 41.7941 20.8865 41.6569 20.8128L41.3097 20.6162C41.1724 20.5589 41.0917 20.5589 40.9544 20.4934L40.583 20.3378C40.2924 20.2149 39.7918 20.0184 39.5011 19.9693L38.5807 19.7564C38.4919 19.74 38.4677 19.7236 38.395 19.7072L36.6188 19.4288C36.4008 19.3387 36.5461 19.4206 36.1344 19.3878C35.8033 19.3551 35.5611 19.4042 35.3754 19.3878C35.109 19.3469 34.786 19.3059 34.5438 19.4779C34.3823 19.6089 34.2855 19.8301 34.4066 20.002L34.4227 19.9938ZM28.7549 43.726C29.425 44.6678 29.2878 44.4139 29.8045 45.413C29.8772 45.5522 29.9579 45.6914 30.0144 45.8306C30.1597 46.2155 30.3535 47.0099 30.4585 47.4357C30.4988 47.5749 30.4746 47.4767 30.4746 47.6159C30.4746 47.6978 30.4908 47.7387 30.4988 47.8206C30.5311 48.1809 30.4988 49.0244 30.4423 49.352C30.3939 49.655 30.3777 49.9907 30.2647 50.2692C30.2405 50.3183 30.2163 50.4002 30.2082 50.4575C30.1274 50.8588 30.3535 51.0881 30.7249 51.1372C30.9429 51.1618 31.0398 51.0635 31.1609 50.8752C31.2981 50.6459 31.3224 50.4411 31.3143 50.2118V50.1709C31.3143 50.0235 31.3385 50.0317 31.3708 49.9006C31.4354 49.5895 31.4677 48.8279 31.4758 48.4266C31.4919 47.9107 31.3708 46.9853 31.177 46.3302C30.9833 45.9043 30.8056 45.4621 30.6684 45.0035C30.5715 44.8561 30.6199 44.8971 30.6119 44.8316C30.6038 44.7906 30.5957 44.7579 30.5796 44.7169C30.4746 44.5204 29.9821 43.7588 29.8933 43.6359C29.4735 43.0545 29.0698 42.6778 28.6338 42.252C28.3593 41.9817 27.6488 41.0727 27.3823 40.7042C27.1563 40.3767 26.9544 39.959 26.793 39.6396C26.4619 38.9599 26.5911 39.4021 26.3408 38.5996C26.2924 38.4358 26.1955 38.1983 26.1874 38.0837L25.9614 37.0764C25.9291 36.9126 25.8968 36.7489 25.8725 36.5605L25.7999 35.5778C25.7837 35.414 25.8241 35.2666 25.8241 35.1028C25.8322 34.8162 25.9129 34.4641 25.9129 34.3904C25.9129 34.3003 25.9129 34.2348 25.9291 34.1529C26.0098 33.6452 25.9452 33.94 26.0825 33.4486C26.1713 33.1538 26.2278 32.9 26.0502 32.6543C25.8402 32.3595 25.3962 32.3758 25.1863 32.9081L24.9037 34.3986C24.9037 34.4805 24.8875 34.505 24.8875 34.5705C24.8552 34.9554 24.831 35.2339 24.8472 35.6188L24.8795 36.6588C24.8875 36.7734 24.9279 36.8799 24.9441 37.0109C25.0652 37.7725 25.1701 38.1083 25.4285 38.8289C25.5334 39.1073 25.7191 39.6151 25.8645 39.9262C25.9614 40.1392 26.0179 40.09 26.034 40.3029C26.0502 40.4504 26.5588 41.2611 26.6961 41.4658L27.5519 42.5222C27.786 42.7679 27.8264 42.8907 28.1332 43.1282C28.327 43.2838 28.553 43.4803 28.7387 43.726H28.7549ZM37.6603 26.4469C37.7572 26.5779 37.9671 26.7089 38.1124 26.7335C38.2497 26.7581 38.8391 26.971 39.049 27.102L40.3893 27.9373C40.5588 28.0602 40.6718 28.2076 40.8333 28.2895C40.9625 28.3632 40.9302 28.3386 41.0352 28.486C41.2935 28.8217 41.1563 28.4942 41.4712 28.8955C41.5196 28.9528 41.5438 28.9773 41.5761 29.0101C41.6569 29.092 41.6003 29.051 41.6811 29.092C41.9475 29.2312 41.9152 29.3213 42.1251 29.4851C42.4319 29.7226 42.3028 29.6325 42.545 29.9273C42.6661 30.0747 42.8437 30.2467 42.9729 30.3941C43.1424 30.5824 43.2555 30.738 43.4008 30.9182C43.9579 31.0492 44.5069 31.213 45.0317 31.4259L45.0156 31.4095C44.2566 30.3531 43.3362 29.3786 42.4562 28.4696L41.124 27.2904C40.9625 27.1675 40.8495 27.0938 40.6718 26.9628C40.6073 26.9055 40.5346 26.8482 40.4619 26.8072C40.365 26.7499 40.3247 26.7417 40.2197 26.6926C39.7111 26.4305 39.4688 26.2258 38.7987 25.9719C38.5081 25.8573 38.0559 25.6689 37.8056 25.8409C37.5877 25.9965 37.4262 26.1848 37.6442 26.4797L37.6603 26.4469ZM19.1793 35.717C19.4942 36.151 19.9625 35.9136 20.0271 35.586C20.0352 35.545 20.0271 35.455 20.0271 35.4058C20.0352 35.283 20.0513 35.3239 20.0675 35.2257C20.0755 35.1602 20.0594 35.1438 20.0594 35.0701C20.0594 34.8981 20.1321 34.7425 20.1321 34.5378C20.1321 33.7189 20.3581 32.9163 20.4792 32.1056C20.4954 32.0155 20.4954 32.0073 20.5196 31.9336C20.6246 31.5651 20.5438 31.6552 20.6326 31.4259C20.7618 31.0656 20.5438 31.2048 20.8022 30.7298C20.9152 30.5251 20.9798 30.2794 21.0444 30.0583C21.0767 29.9355 21.1574 29.8454 21.2059 29.7226C21.4481 29.0183 21.7872 28.3713 22.1586 27.7326C22.2958 27.5033 22.3847 27.3068 22.5461 27.0856C22.6995 26.8645 22.8449 26.6434 22.9902 26.4305C23.1113 26.2667 23.3293 25.9228 23.4665 25.8C23.5957 25.6853 23.6845 25.6198 23.7814 25.4888C23.8945 25.3414 23.9106 25.3332 24.1205 25.1776C24.0398 24.9728 24.2659 24.9319 24.4273 24.7599C24.5727 24.6043 24.6615 24.4815 24.8149 24.3423C25.6545 23.6134 26.575 22.8764 27.5277 22.3196L28.658 21.7218C28.8841 21.6071 29.1505 21.4351 29.4169 21.3696C29.6107 21.3205 29.7641 21.2386 29.966 21.1649C30.0306 21.1403 30.0629 21.1567 30.1517 21.1239C30.2647 21.0912 30.3939 21.0175 30.515 20.9847L31.8472 20.6244C32.0086 20.5835 31.9683 20.649 32.1298 20.5835C32.2509 20.5261 32.372 20.477 32.5092 20.4606C32.598 20.4524 32.6626 20.4606 32.7353 20.4033C33.0259 20.1986 32.8725 19.6335 32.4527 19.5598C32.2105 19.5189 31.8795 19.6908 31.6292 19.74C31.4838 19.7645 31.3466 19.7891 31.2174 19.8219C31.1851 19.8301 31.1528 19.8382 31.1124 19.8464C30.7572 19.9038 29.8691 20.174 29.5461 20.3132C29.2797 20.4197 29.5058 20.3787 29.1263 20.4852C29.0375 20.5098 28.9971 20.5343 28.9083 20.5835C28.8356 20.6244 28.771 20.649 28.6984 20.6735C28.1332 20.9356 27.4792 21.2713 26.9625 21.5989C26.8091 21.6972 26.6638 21.8446 26.5104 21.9183C26.2036 22.0821 26.0421 22.1803 25.8402 22.3196L25.5092 22.5652L25.485 22.5816C25.2993 22.729 25.3316 22.8437 25.1297 22.9419C24.8956 23.0648 24.4515 23.466 24.2255 23.6544L23.4665 24.4242C23.3858 24.5388 23.2324 24.678 23.1517 24.8091C23.079 24.9401 22.9983 24.9319 22.8206 25.2021C22.7238 25.3414 22.5865 25.4478 22.4896 25.5952C22.4008 25.7181 22.3443 25.8655 22.2312 25.9965L21.9244 26.3814C21.8114 26.5534 21.5934 26.8072 21.5208 26.9792C21.4239 27.2167 21.2139 27.4542 21.1009 27.6835C21.0848 27.7244 21.0605 27.7653 21.0444 27.7981L20.6972 28.4123C20.6891 28.4287 20.6488 28.5024 20.6407 28.5106L20.5277 28.8381C20.4631 28.9773 20.3743 29.0838 20.3178 29.2394C20.2532 29.4032 20.1886 29.5014 20.124 29.657C20.0675 29.7963 20.0271 29.9355 19.9787 30.0829L19.7607 30.7134C19.7364 30.7953 19.7364 30.8281 19.7041 30.9264C19.6799 31.0164 19.6799 31.0574 19.6638 31.1393C19.6396 31.2376 19.6234 31.2539 19.6073 31.3604C19.5911 31.4505 19.575 31.475 19.5507 31.5733L19.3893 32.2121C19.3085 32.6461 19.2197 33.0801 19.1793 33.5141L19.1713 33.9482C19.1551 34.3904 18.9371 35.4222 19.1632 35.7334L19.1793 35.717ZM33.9383 29.8863C34.1805 30.2221 34.1321 30.173 34.8426 30.1074C34.9152 30.0993 34.8991 30.0911 34.9637 30.1074L35.0928 30.1402C35.1251 30.1402 35.1655 30.1402 35.2139 30.132C35.4804 30.1238 35.4158 30.1484 35.5853 30.1648C35.9325 30.2057 36.1586 30.1975 36.5784 30.3449L38.0156 31.041L38.064 31.0738C38.4596 30.9591 38.8552 30.869 39.2589 30.8035C38.8956 30.4678 38.5807 30.1893 38.4758 30.1156C38.064 29.8208 37.7572 29.7553 37.733 29.7389C37.5957 29.6489 37.7572 29.657 37.5877 29.6243C37.4262 29.5833 37.5957 29.698 37.2082 29.526C37.0629 29.4687 36.9983 29.4359 36.8449 29.4114C36.5623 29.3704 36.1828 29.2394 35.9002 29.2148C35.5208 29.1903 34.4227 29.0347 34.1159 29.2558C33.9383 29.395 33.8253 29.7226 33.9625 29.8945L33.9383 29.8863ZM29.6753 38.8698C30.0386 39.3858 30.192 39.5823 30.3293 39.7379C30.402 39.3202 30.5069 38.9026 30.628 38.4931C30.3697 38.1246 29.9983 37.4695 29.9498 37.0682C29.9014 36.7489 29.8691 36.9208 29.8287 36.4131C29.7803 35.8071 29.7399 35.6188 29.7641 35.0291C29.7722 34.8653 29.7964 34.5378 29.8368 34.3904C29.9256 34.0956 29.8933 34.2839 29.9902 33.9072C30.0306 33.7516 30.079 33.5878 30.1355 33.4322C30.2163 33.2111 30.4665 32.7034 30.6522 32.5069C30.7168 32.425 30.8299 32.3595 30.8783 32.3021C30.959 32.2039 30.9671 32.1547 31.0398 32.0565C31.1124 31.9828 31.177 31.9336 31.2739 31.8517C31.4193 31.7371 31.3708 31.7207 31.4515 31.6224C31.6211 31.4095 32.2751 30.9755 32.5577 30.7626C32.4931 30.607 32.6545 30.476 32.5738 30.3695C32.3397 30.0337 32.3477 29.96 32.1701 29.9519C31.6938 29.9355 31.6211 30.0993 31.0882 30.4841C30.8864 30.6397 30.2486 31.2539 30.1436 31.4013C30.0225 31.5815 29.9337 31.7207 29.8126 31.9009C29.756 32.0073 29.7238 32.0237 29.6753 32.1384C29.5623 32.4004 29.3443 32.5888 29.0698 33.3913C29.0213 33.5305 28.9083 33.8171 28.9244 33.9072C28.9406 33.9973 28.9487 33.9318 28.9487 34.0382C28.9487 34.0628 28.9325 34.1529 28.9244 34.1775C28.9083 34.2266 28.8841 34.2512 28.8679 34.3085C28.8276 34.4068 28.8518 34.3576 28.8356 34.4477C28.8276 34.5378 28.8276 34.6033 28.8276 34.7098C28.8195 34.808 28.8114 34.8735 28.8114 34.9718L28.7468 36.0528C28.7549 36.1347 28.8033 36.2166 28.8195 36.323C28.8276 36.4295 28.8195 36.495 28.8356 36.6096C28.8679 36.8307 28.9406 36.9044 28.9244 37.1501C28.9164 37.3221 29.0052 37.4777 29.1021 37.6906C29.2151 37.9445 29.5703 38.6897 29.6995 38.878L29.6753 38.8698ZM30.3939 22.6307C30.5957 22.9092 30.6765 23.032 31.0479 22.9337C31.2659 22.8764 31.4596 22.8191 31.6615 22.7126C31.936 22.5734 32.0167 22.6226 32.2589 22.5652C32.372 22.5489 32.4527 22.4997 32.5577 22.4752C32.6626 22.4424 32.7434 22.467 32.8564 22.467C32.9614 22.467 33.0259 22.426 33.1471 22.4096C33.4862 22.3441 33.5104 22.295 33.7203 22.3196C33.8253 22.3359 34.1401 22.254 34.6003 22.2704C34.7941 22.2786 34.9798 22.3032 35.1736 22.295L35.5934 22.3032C36.1101 22.3933 36.3524 22.295 36.8691 22.426C37.2889 22.5325 36.8691 22.5079 37.4342 22.4915L38.8149 22.8027C39.0975 22.8928 39.0975 22.8682 39.3639 23.0156L40.1632 23.3432C40.357 23.4333 40.5104 23.4906 40.6961 23.5971C40.7849 23.638 40.8656 23.6953 40.9625 23.7363L41.5115 23.9083C41.6326 23.9901 41.4792 23.8837 41.5923 24.0229C41.6407 24.0802 41.673 24.0802 41.7376 24.113C41.9314 24.2031 42.0767 24.3668 42.2543 24.4815C42.7226 24.7763 42.8437 24.85 43.2958 25.2349L44.0548 25.8982C44.1355 25.9965 44.184 26.0948 44.2889 26.1848C44.3858 26.2831 44.4262 26.3077 44.5311 26.3896L45.7826 27.6753C45.8472 27.7408 45.8633 27.7326 45.8956 27.7735C45.9037 27.7817 46.049 28.0028 46.2347 28.2076C46.3558 28.3386 46.5819 28.617 46.7111 28.7972C47.0259 29.2312 47.3489 29.5833 47.6718 30.0419C47.9787 30.4678 48.342 30.9018 48.568 31.385C48.6488 31.5324 48.8022 31.7043 48.8587 31.8108C48.8991 31.8927 48.8829 31.9009 48.9152 31.95C49.0282 32.122 49.0605 31.9336 49.44 32.7689C49.6176 33.1456 49.7468 33.2439 49.8195 33.3913C49.9244 33.596 49.8679 33.7926 50.1424 33.8417C50.312 33.8745 50.5219 33.9318 50.7076 33.8008C50.8206 33.7189 50.9256 33.5387 50.9337 33.4322C50.974 33.1866 50.3685 32.3349 50.2232 32.1056C50.1505 32.0073 50.1747 31.9991 50.094 31.8845C49.771 31.4013 49.4642 30.8035 49.1009 30.3122C48.8426 29.9519 48.2612 29.1002 47.9867 28.8136C47.6476 28.4532 46.9775 27.5688 46.6061 27.1675C46.5577 27.1102 46.5173 27.0938 46.4688 27.0447L44.6684 25.2267C44.5715 25.1366 44.4988 25.0629 44.402 24.9728C44.3051 24.8746 44.2324 24.8418 44.1355 24.7599C44.0467 24.678 43.9821 24.6043 43.8772 24.5143C43.6995 24.3668 43.5219 24.2276 43.3524 24.0884C42.8114 23.6298 42.7226 23.6626 42.2705 23.3514C41.7941 23.0156 41.6407 22.9911 41.1644 22.7863L40.7526 22.5898C40.688 22.5652 40.6718 22.5734 40.6073 22.5489C40.1148 22.3605 39.4204 22.0329 38.9441 21.8528C38.9279 21.8446 38.5969 21.7955 38.3708 21.7136C38.0963 21.6153 37.515 21.5252 37.2163 21.5006C36.9337 21.4761 37.0871 21.4679 36.9175 21.4269C36.7883 21.3942 36.748 21.4351 36.6188 21.4188L36.0375 21.3369C35.9325 21.3205 35.8599 21.3369 35.7387 21.3369L34.8506 21.2959C34.7537 21.2877 34.6488 21.3041 34.5519 21.3123C34.019 21.3614 34.2047 21.3123 33.6396 21.4188C33.4942 21.4433 33.4539 21.4024 33.034 21.4843C32.598 21.5662 32.2428 21.5989 31.8068 21.689C31.5969 21.7381 31.3789 21.8446 31.1851 21.8692C31.0398 21.8937 31.1044 21.8282 30.8702 21.951C30.6926 22.0493 30.6926 22.0084 30.4988 22.1558C30.3777 22.2459 30.3131 22.5161 30.402 22.6389L30.3939 22.6307ZM23.2082 43.1773C24.1044 44.4385 24.3224 44.7824 25.4043 45.8961C25.816 46.3056 25.6223 45.978 26.0986 46.6577C26.4539 47.1573 26.6073 47.8124 26.6315 48.3447C26.6396 48.5331 26.688 48.6723 26.6073 48.8197C26.5507 48.9098 26.5427 48.8524 26.5507 48.9753C26.5669 49.2619 26.7284 49.5076 27.0352 49.5485C27.6246 49.6304 27.6326 48.9589 27.673 48.7378C27.6972 48.5658 27.7053 48.5085 27.6326 48.3447C27.5115 48.0499 27.6811 48.2546 27.5357 47.7387C27.5035 47.6322 27.5277 47.6322 27.5035 47.5258C27.4792 47.4439 27.4469 47.4029 27.4308 47.3129C27.35 46.9198 27.2774 46.6741 26.9787 46.2483L26.4781 45.544L25.6868 44.7824C25.5657 44.6596 25.3962 44.4385 25.2993 44.3156C25.162 44.16 25.0329 44.0863 24.9037 43.9144C23.7007 42.2274 23.7572 42.2192 22.8772 40.3767C22.7641 40.1555 22.4331 38.9927 22.3685 38.7388C22.1667 37.9035 22.1909 37.838 22.0698 37.0928C21.9648 36.3885 22.0213 36.6752 22.0133 36.151C22.0133 36.0446 21.981 35.9381 21.981 35.8235C21.9648 35.5778 22.0213 35.4632 21.981 35.1765C21.9164 34.7507 22.0133 34.7425 22.0052 34.5542C21.9971 34.1283 22.1021 33.5878 22.199 33.1784C22.2393 33.0146 22.2312 32.9081 22.2878 32.7034C22.3362 32.5069 22.3685 32.0073 22.4896 31.8108C22.643 31.5487 22.7641 30.9591 22.7883 30.91C22.8449 30.779 22.8933 30.7462 22.9175 30.607C23.0306 30.1238 23.0548 30.3367 23.184 30.0256C23.3051 29.7226 23.4827 29.4359 23.628 29.1493L23.959 28.5679C24.0882 28.3713 24.2013 28.1994 24.3385 27.9865C24.5 27.7244 25.4123 26.5452 25.6868 26.3241C25.8887 26.1685 26.0825 25.9637 26.2762 25.7754C26.47 25.587 26.6315 25.4232 26.8737 25.2513C26.9867 25.1612 27.0998 25.0711 27.2128 24.9892L28.2382 24.2768C28.5046 24.1212 29.4412 23.7527 29.1182 23.2859C28.7226 22.7372 28.7387 22.8273 27.9394 23.2695C26.8253 23.8837 25.0975 25.3659 24.3708 26.3159C24.282 26.4387 24.2013 26.496 24.1609 26.5943L23.7976 27.1594C23.6119 27.4132 23.5957 27.3805 23.3939 27.7162L22.6995 28.8381L21.9325 30.566C21.8679 30.738 21.9406 30.6725 21.8114 30.9919C21.7872 31.0492 21.7791 31.0738 21.7549 31.1393C21.6661 31.385 21.44 32.0974 21.3996 32.3349C21.3189 32.9163 21.2301 32.9491 21.1897 33.5387C21.1736 33.8417 21.1251 34.0219 21.1009 34.4559C21.0928 34.546 21.1009 34.677 21.0848 34.7589C21.0444 34.9882 21.0444 35.2748 21.0444 35.5123C21.0444 35.5696 21.0444 35.6188 21.0525 35.6843L21.1332 36.626C21.1574 36.929 21.109 36.8553 21.1736 37.2566L21.3593 38.5177C21.3674 38.6406 21.3916 38.6979 21.4319 38.8289C21.5288 39.1401 21.4965 39.2465 21.5934 39.484L21.8114 40.1474C21.9325 40.5077 21.8841 40.4504 22.0698 40.8189C22.1828 41.0236 22.3927 41.7033 22.643 42.1373C22.7722 42.3666 23.0548 42.7761 23.1436 43.0136C23.1759 43.0955 23.1597 43.0955 23.2243 43.1855L23.2082 43.1773ZM24.8956 41.1301C25.2509 40.8598 25.049 40.6715 24.8472 40.131L24.4677 39.1401C24.4031 38.9517 24.4193 38.8453 24.3385 38.6487C24.2093 38.3457 24.177 38.0018 24.1124 37.6906C23.959 37.06 23.9106 35.9299 23.8864 35.283C23.8702 34.9309 23.9429 34.2512 24.0398 33.9072C24.1205 33.6042 24.1205 33.293 24.1932 32.9818C24.2174 32.9081 24.2174 32.8508 24.2255 32.7689C24.2416 32.6707 24.2659 32.6461 24.282 32.5396C24.3143 32.3267 24.3224 32.2858 24.4273 32.0974C24.4919 31.9582 24.4919 31.7862 24.5565 31.6388L24.7584 31.2048C24.8633 30.91 25.0167 30.6152 25.154 30.3449C25.1943 30.2712 25.2347 30.1893 25.2751 30.1156C25.2993 30.0829 25.3235 30.0583 25.3477 30.0092L25.3962 29.8945C25.5254 29.5506 26.2359 28.5188 26.5427 28.2076C26.688 28.052 26.7849 27.9537 26.906 27.7981C27.124 27.5115 27.4469 27.2331 27.7537 27.0038C27.9475 26.8645 28.0202 26.7008 28.1817 26.5943C28.4965 26.3568 29.3927 25.7181 29.6915 25.587C29.974 25.456 30.9348 24.9483 31.177 24.8664L31.4193 24.8173C31.4273 24.8173 31.4515 24.8009 31.4596 24.8009L31.8714 24.719C32.0006 24.678 32.0813 24.6698 32.2266 24.6371C32.7757 24.4979 33.4619 24.3587 34.011 24.285C34.3904 24.2358 35.0283 24.1785 35.3916 24.2358L36.748 24.3587C36.9094 24.3832 36.9256 24.3341 37.0871 24.3832C37.2324 24.4324 37.2647 24.4324 37.41 24.4569C37.5392 24.4815 37.6038 24.4897 37.7411 24.5224L38.4031 24.7435C38.6776 24.8254 38.9521 24.9155 39.2105 25.0465C39.3154 25.0875 39.2832 25.1121 39.3962 25.0384C39.5657 25.2677 39.8079 25.2267 40.0179 25.3741L40.3247 25.5625C40.6234 25.7836 40.9706 25.9555 41.2612 26.1685C41.5196 26.3486 41.9556 26.6598 42.1817 26.8973C42.3189 27.0447 42.3431 27.0529 42.4804 27.1512C42.6903 27.3068 42.876 27.5115 43.0859 27.708C43.1747 27.7981 43.2878 27.9046 43.3766 27.9946C43.5219 28.1339 43.8045 28.4778 43.9337 28.4942C44.0306 28.5024 44.2324 28.4369 44.3374 28.3632C44.6845 28.1093 44.515 27.5852 44.1517 27.3641C44.0548 27.2986 44.1517 27.405 44.0467 27.2822C44.0063 27.2412 43.966 27.2003 43.9256 27.1512L43.2312 26.496C43.094 26.3732 42.9164 26.2504 42.7791 26.0948C42.4562 25.7426 42.1655 25.6689 41.8183 25.3823C41.7134 25.3086 41.6891 25.2758 41.5842 25.2185L41.0836 24.9401C40.9544 24.85 40.7364 24.8009 40.6073 24.719C40.5507 24.678 40.5427 24.6535 40.4781 24.6043C40.252 24.4324 39.4123 24.1212 39.0975 23.9983L38.3466 23.7609C38.1205 23.7281 37.9348 23.6216 37.7168 23.5807C37.628 23.5643 37.6603 23.5807 37.5715 23.5725C37.4746 23.5643 37.41 23.5152 37.3051 23.4906C36.8045 23.3841 36.2878 23.3432 35.763 23.3023C35.5853 23.2859 35.4077 23.2449 35.2382 23.2449C35.1574 23.2449 35.0605 23.2531 34.9798 23.2531C34.8829 23.2613 34.8103 23.2777 34.7134 23.2941C34.3662 23.3432 34.4792 23.2122 33.6234 23.3596C33.034 23.4579 32.3639 23.4742 31.8068 23.7363C31.718 23.7772 31.8391 23.7363 31.7422 23.769C31.6695 23.7936 31.5646 23.7936 31.4596 23.8182C31.0802 23.9328 30.1032 24.3259 29.756 24.4979C29.3362 24.7272 28.9487 25.0384 28.5692 25.2349L28.0363 25.5707C27.8668 25.7181 27.6165 25.8818 27.4308 26.0129C27.0594 26.2831 26.793 26.6271 26.4781 26.9382C25.7111 27.6753 25.5334 27.9373 24.9441 28.8463L24.2013 30.0665C24.1447 30.1811 24.1609 30.2057 24.1124 30.3367L23.846 30.8363C23.7733 30.9673 23.8379 31.0083 23.6926 31.344C23.6199 31.516 23.5634 31.688 23.515 31.8599L23.2163 32.9081C23.1436 33.1538 22.9983 34.1856 22.9821 34.4641L22.9337 34.8572C22.9256 34.8981 22.9256 34.8817 22.9256 34.9145C22.9256 34.9554 22.9256 34.9472 22.9337 34.9964C22.9579 35.1847 22.9256 35.3321 22.9256 35.5205C22.9337 36.061 23.0548 36.6588 23.0467 37.1747C23.0467 37.3794 23.2001 38.0346 23.2405 38.2802C23.4262 39.1483 23.6522 39.4677 23.7814 39.9754C23.8864 40.434 24.2901 41.5641 24.8714 41.1464L24.8956 41.1301Z" fill="white"/>
</g>
<defs>
<clipPath id="clip0_38_1167">
<rect width="70" height="71" fill="white"/>
</clipPath>
<clipPath id="clip1_38_1167">
<rect width="70" height="71" fill="white"/>
</clipPath>
</defs>
</svg>
