<svg width="33" height="32" viewBox="0 0 33 32" fill="none" xmlns="http://www.w3.org/2000/svg">
<path d="M29.3333 17.0825C29.1209 19.5524 28.2074 21.9104 26.7004 23.8788C25.1934 25.8473 23.1555 27.3443 20.8265 28.1939C18.4976 29.0435 15.9744 29.2103 13.5539 28.6746C11.1334 28.1389 8.91618 26.9231 7.1632 25.1701C5.41022 23.4171 4.19437 21.1999 3.65868 18.7794C3.12299 16.3589 3.28976 13.8357 4.13936 11.5068C4.98896 9.17781 6.48605 7.13994 8.45449 5.63293C10.4229 4.12591 12.7808 3.21244 15.2508 2.99998C15.3821 2.98915 15.5143 3.00428 15.6398 3.04453C15.7653 3.08477 15.8816 3.14934 15.9821 3.23454C16.0826 3.31973 16.1654 3.4239 16.2256 3.54108C16.2859 3.65826 16.3225 3.78616 16.3333 3.91748C16.3442 4.0488 16.329 4.18097 16.2888 4.30644C16.2485 4.43191 16.184 4.54823 16.0988 4.64875C16.0136 4.74927 15.9094 4.83202 15.7922 4.89229C15.675 4.95255 15.5471 4.98915 15.4158 4.99998C13.3253 5.1796 11.3296 5.95256 9.66345 7.22793C7.99733 8.5033 6.73014 10.228 6.01097 12.1991C5.2918 14.1703 5.15058 16.3058 5.60392 18.3544C6.05726 20.4031 7.0863 22.2797 8.56997 23.7633C10.0536 25.247 11.9302 26.276 13.9789 26.7294C16.0275 27.1827 18.163 27.0415 20.1342 26.3223C22.1053 25.6032 23.83 24.336 25.1054 22.6698C26.3807 21.0037 27.1537 19.008 27.3333 16.9175C27.3552 16.6523 27.4815 16.4066 27.6845 16.2345C27.8876 16.0625 28.1506 15.9781 28.4158 16C28.681 16.0219 28.9267 16.1482 29.0988 16.3512C29.2708 16.5542 29.3552 16.8173 29.3333 17.0825ZM15.3333 8.99998V16C15.3333 16.2652 15.4387 16.5196 15.6262 16.7071C15.8137 16.8946 16.0681 17 16.3333 17H23.3333C23.5985 17 23.8529 16.8946 24.0404 16.7071C24.228 16.5196 24.3333 16.2652 24.3333 16C24.3333 15.7348 24.228 15.4804 24.0404 15.2929C23.8529 15.1053 23.5985 15 23.3333 15H17.3333V8.99998C17.3333 8.73476 17.228 8.48041 17.0404 8.29287C16.8529 8.10534 16.5985 7.99998 16.3333 7.99998C16.0681 7.99998 15.8137 8.10534 15.6262 8.29287C15.4387 8.48041 15.3333 8.73476 15.3333 8.99998ZM20.3333 5.99998C20.63 5.99998 20.92 5.91201 21.1667 5.74718C21.4133 5.58236 21.6056 5.34809 21.7191 5.074C21.8327 4.79992 21.8624 4.49832 21.8045 4.20734C21.7466 3.91637 21.6038 3.6491 21.394 3.43932C21.1842 3.22954 20.9169 3.08668 20.626 3.0288C20.335 2.97092 20.0334 3.00063 19.7593 3.11416C19.4852 3.22769 19.2509 3.41995 19.0861 3.66662C18.9213 3.9133 18.8333 4.20331 18.8333 4.49998C18.8333 4.8978 18.9914 5.27934 19.2727 5.56064C19.554 5.84194 19.9355 5.99998 20.3333 5.99998ZM24.8333 8.99998C25.13 8.99998 25.42 8.91201 25.6667 8.74718C25.9133 8.58236 26.1056 8.34809 26.2191 8.074C26.3327 7.79992 26.3624 7.49832 26.3045 7.20734C26.2466 6.91637 26.1038 6.6491 25.894 6.43932C25.6842 6.22954 25.4169 6.08668 25.126 6.0288C24.835 5.97092 24.5334 6.00063 24.2593 6.11416C23.9852 6.22769 23.7509 6.41995 23.5861 6.66662C23.4213 6.9133 23.3333 7.20331 23.3333 7.49998C23.3333 7.8978 23.4914 8.27934 23.7727 8.56064C24.054 8.84194 24.4355 8.99998 24.8333 8.99998ZM27.8333 13.5C28.13 13.5 28.42 13.412 28.6667 13.2472C28.9133 13.0824 29.1056 12.8481 29.2191 12.574C29.3327 12.2999 29.3624 11.9983 29.3045 11.7073C29.2466 11.4164 29.1038 11.1491 28.894 10.9393C28.6842 10.7295 28.4169 10.5867 28.126 10.5288C27.835 10.4709 27.5334 10.5006 27.2593 10.6142C26.9852 10.7277 26.7509 10.92 26.5861 11.1666C26.4213 11.4133 26.3333 11.7033 26.3333 12C26.3333 12.3978 26.4914 12.7793 26.7727 13.0606C27.054 13.3419 27.4355 13.5 27.8333 13.5Z" fill="#EF4050"/>
</svg>
